<mxfile host="65bd71144e">
    <diagram id="u1bOF4eY37yNKx4_wJDv" name="Page-1">
        <mxGraphModel dx="811" dy="411" grid="1" gridSize="10" guides="1" tooltips="1" connect="1" arrows="1" fold="1" page="1" pageScale="1" pageWidth="850" pageHeight="1100" math="0" shadow="0">
            <root>
                <mxCell id="0"/>
                <mxCell id="1" parent="0"/>
                <mxCell id="2" value="A01 - Manager" style="shape=umlActor;verticalLabelPosition=bottom;verticalAlign=top;html=1;" parent="1" vertex="1">
                    <mxGeometry x="80" y="455" width="30" height="60" as="geometry"/>
                </mxCell>
                <mxCell id="5" value="NoGain" style="shape=umlFrame;whiteSpace=wrap;html=1;width=120;height=30;boundedLbl=1;verticalAlign=middle;align=left;spacingLeft=5;" parent="1" vertex="1">
                    <mxGeometry x="280" y="160" width="900" height="810" as="geometry"/>
                </mxCell>
                <mxCell id="6" value="Register Employee" style="ellipse;whiteSpace=wrap;html=1;" parent="1" vertex="1">
                    <mxGeometry x="970" y="230" width="140" height="70" as="geometry"/>
                </mxCell>
                <mxCell id="8" value="" style="endArrow=none;html=1;" parent="1" source="2" target="6" edge="1">
                    <mxGeometry width="50" height="50" relative="1" as="geometry">
                        <mxPoint x="420" y="350" as="sourcePoint"/>
                        <mxPoint x="470" y="300" as="targetPoint"/>
                    </mxGeometry>
                </mxCell>
                <mxCell id="9" value="Login" style="ellipse;whiteSpace=wrap;html=1;" parent="1" vertex="1">
                    <mxGeometry x="370" y="220" width="140" height="70" as="geometry"/>
                </mxCell>
                <mxCell id="10" value="" style="endArrow=none;html=1;" parent="1" source="2" target="9" edge="1">
                    <mxGeometry width="50" height="50" relative="1" as="geometry">
                        <mxPoint x="179.9999999999999" y="277.0766992879629" as="sourcePoint"/>
                        <mxPoint x="379.06495846654957" y="370.99155594386843" as="targetPoint"/>
                    </mxGeometry>
                </mxCell>
                <mxCell id="11" value="Create Discount" style="ellipse;whiteSpace=wrap;html=1;" parent="1" vertex="1">
                    <mxGeometry x="950" y="360" width="140" height="70" as="geometry"/>
                </mxCell>
                <mxCell id="12" value="&amp;lt;&amp;lt;include&amp;gt;&amp;gt;" style="endArrow=open;endSize=12;html=1;" parent="1" source="6" target="9" edge="1">
                    <mxGeometry x="-0.0371" y="24" width="160" relative="1" as="geometry">
                        <mxPoint x="370" y="380" as="sourcePoint"/>
                        <mxPoint x="530" y="380" as="targetPoint"/>
                        <mxPoint as="offset"/>
                    </mxGeometry>
                </mxCell>
                <mxCell id="13" value="&amp;lt;&amp;lt;include&amp;gt;&amp;gt;" style="endArrow=open;endSize=12;html=1;" parent="1" source="11" target="9" edge="1">
                    <mxGeometry x="0.001" y="20" width="160" relative="1" as="geometry">
                        <mxPoint x="488.27698294885045" y="322.29778046165814" as="sourcePoint"/>
                        <mxPoint x="635.892806302337" y="258.80145816367053" as="targetPoint"/>
                        <mxPoint as="offset"/>
                    </mxGeometry>
                </mxCell>
                <mxCell id="14" value="" style="endArrow=none;html=1;" parent="1" source="2" target="11" edge="1">
                    <mxGeometry width="50" height="50" relative="1" as="geometry">
                        <mxPoint x="179.9999999999999" y="274.8132181795743" as="sourcePoint"/>
                        <mxPoint x="371.05773370112024" y="336.12005532614" as="targetPoint"/>
                    </mxGeometry>
                </mxCell>
                <mxCell id="15" value="Register Personal Trainer" style="ellipse;whiteSpace=wrap;html=1;" parent="1" vertex="1">
                    <mxGeometry x="880" y="480" width="160" height="70" as="geometry"/>
                </mxCell>
                <mxCell id="16" value="" style="endArrow=none;html=1;" parent="1" source="2" target="15" edge="1">
                    <mxGeometry width="50" height="50" relative="1" as="geometry">
                        <mxPoint x="180" y="281.3212660889991" as="sourcePoint"/>
                        <mxPoint x="411.2449305680109" y="455.85362546850433" as="targetPoint"/>
                    </mxGeometry>
                </mxCell>
                <mxCell id="17" value="&amp;lt;&amp;lt;include&amp;gt;&amp;gt;" style="endArrow=open;endSize=12;html=1;" parent="1" source="15" target="9" edge="1">
                    <mxGeometry x="0.001" y="20" width="160" relative="1" as="geometry">
                        <mxPoint x="655.9586360564772" y="434.4173842646428" as="sourcePoint"/>
                        <mxPoint x="469.04852759278856" y="266.58062200463405" as="targetPoint"/>
                        <mxPoint as="offset"/>
                    </mxGeometry>
                </mxCell>
                <mxCell id="18" value="Create Training Plan" style="ellipse;whiteSpace=wrap;html=1;" parent="1" vertex="1">
                    <mxGeometry x="760" y="580" width="160" height="70" as="geometry"/>
                </mxCell>
                <mxCell id="19" value="Register Client" style="ellipse;whiteSpace=wrap;html=1;" parent="1" vertex="1">
                    <mxGeometry x="425" y="590" width="160" height="70" as="geometry"/>
                </mxCell>
                <mxCell id="20" value="" style="endArrow=none;html=1;" parent="1" source="2" target="18" edge="1">
                    <mxGeometry width="50" height="50" relative="1" as="geometry">
                        <mxPoint x="180" y="279.5605339399067" as="sourcePoint"/>
                        <mxPoint x="574.7232193687423" y="531.1448496495091" as="targetPoint"/>
                    </mxGeometry>
                </mxCell>
                <mxCell id="21" value="&amp;lt;&amp;lt;include&amp;gt;&amp;gt;" style="endArrow=open;endSize=12;html=1;" parent="1" source="18" target="9" edge="1">
                    <mxGeometry x="0.001" y="20" width="160" relative="1" as="geometry">
                        <mxPoint x="600.6714103615247" y="526.036906778108" as="sourcePoint"/>
                        <mxPoint x="454.2143144514887" y="269.65564633222505" as="targetPoint"/>
                        <mxPoint as="offset"/>
                    </mxGeometry>
                </mxCell>
                <mxCell id="22" value="&amp;lt;&amp;lt;include&amp;gt;&amp;gt;" style="endArrow=open;endSize=12;html=1;" parent="1" source="19" target="9" edge="1">
                    <mxGeometry x="0.001" y="20" width="160" relative="1" as="geometry">
                        <mxPoint x="522.005625931667" y="610.1751924146586" as="sourcePoint"/>
                        <mxPoint x="443.0160810107236" y="270.76975138401394" as="targetPoint"/>
                        <mxPoint as="offset"/>
                    </mxGeometry>
                </mxCell>
                <mxCell id="23" value="" style="endArrow=none;html=1;" parent="1" source="2" target="19" edge="1">
                    <mxGeometry width="50" height="50" relative="1" as="geometry">
                        <mxPoint x="180" y="285.4132036934176" as="sourcePoint"/>
                        <mxPoint x="498.61567271186027" y="612.8057545882953" as="targetPoint"/>
                    </mxGeometry>
                </mxCell>
            </root>
        </mxGraphModel>
    </diagram>
</mxfile>